<mxfile host="app.diagrams.net" modified="2023-01-20T12:10:13.717Z" agent="5.0 (Windows NT 10.0; Win64; x64) AppleWebKit/537.36 (KHTML, like Gecko) Chrome/108.0.0.0 Safari/537.36" etag="VbsHgN4o5QzgJLJXan1d" version="20.8.8" type="github">
  <diagram name="第 1 页" id="2OtK2I9S_7ce7mAN8M0d">
    <mxGraphModel dx="1509" dy="1973" grid="1" gridSize="10" guides="1" tooltips="1" connect="1" arrows="1" fold="1" page="1" pageScale="1" pageWidth="827" pageHeight="1169" math="1" shadow="0">
      <root>
        <mxCell id="0" />
        <mxCell id="1" parent="0" />
        <mxCell id="V5P2jXgz8SeRun-mOYAe-91" value="" style="group" vertex="1" connectable="0" parent="1">
          <mxGeometry x="500" y="-469" width="550" height="172.5" as="geometry" />
        </mxCell>
        <mxCell id="V5P2jXgz8SeRun-mOYAe-57" value="" style="edgeStyle=orthogonalEdgeStyle;rounded=0;orthogonalLoop=1;jettySize=auto;html=1;fontSize=18;entryX=0.5;entryY=1;entryDx=0;entryDy=0;" edge="1" parent="V5P2jXgz8SeRun-mOYAe-91" target="V5P2jXgz8SeRun-mOYAe-63">
          <mxGeometry relative="1" as="geometry">
            <mxPoint x="60" y="82.5" as="sourcePoint" />
            <mxPoint x="154" y="82.5" as="targetPoint" />
          </mxGeometry>
        </mxCell>
        <mxCell id="V5P2jXgz8SeRun-mOYAe-55" value="" style="endArrow=classic;html=1;rounded=0;fontSize=18;" edge="1" parent="V5P2jXgz8SeRun-mOYAe-91">
          <mxGeometry width="50" height="50" relative="1" as="geometry">
            <mxPoint x="73" y="82.5" as="sourcePoint" />
            <mxPoint x="500" y="82.5" as="targetPoint" />
            <Array as="points">
              <mxPoint x="73" y="172.5" />
              <mxPoint x="240" y="172.5" />
              <mxPoint x="500" y="172.5" />
            </Array>
          </mxGeometry>
        </mxCell>
        <mxCell id="V5P2jXgz8SeRun-mOYAe-83" style="edgeStyle=orthogonalEdgeStyle;rounded=0;orthogonalLoop=1;jettySize=auto;html=1;fontSize=15;" edge="1" parent="V5P2jXgz8SeRun-mOYAe-91" source="V5P2jXgz8SeRun-mOYAe-60">
          <mxGeometry relative="1" as="geometry">
            <mxPoint x="340" y="82.5" as="targetPoint" />
          </mxGeometry>
        </mxCell>
        <mxCell id="V5P2jXgz8SeRun-mOYAe-60" value="&lt;font style=&quot;font-size: 15px;&quot;&gt;Reshape&lt;/font&gt;" style="rounded=0;whiteSpace=wrap;html=1;rotation=90;fillColor=#d5e8d4;strokeColor=#82b366;" vertex="1" parent="V5P2jXgz8SeRun-mOYAe-91">
          <mxGeometry x="244" y="62.5" width="80" height="40" as="geometry" />
        </mxCell>
        <mxCell id="V5P2jXgz8SeRun-mOYAe-71" style="edgeStyle=orthogonalEdgeStyle;rounded=0;orthogonalLoop=1;jettySize=auto;html=1;fontSize=18;" edge="1" parent="V5P2jXgz8SeRun-mOYAe-91" source="V5P2jXgz8SeRun-mOYAe-61">
          <mxGeometry relative="1" as="geometry">
            <mxPoint x="530" y="82.5" as="targetPoint" />
          </mxGeometry>
        </mxCell>
        <mxCell id="V5P2jXgz8SeRun-mOYAe-61" value="&lt;font style=&quot;font-size: 15px;&quot;&gt;Reshape&lt;/font&gt;" style="rounded=0;whiteSpace=wrap;html=1;rotation=90;fillColor=#d5e8d4;strokeColor=#82b366;" vertex="1" parent="V5P2jXgz8SeRun-mOYAe-91">
          <mxGeometry x="400" y="62.5" width="80" height="40" as="geometry" />
        </mxCell>
        <mxCell id="V5P2jXgz8SeRun-mOYAe-82" style="edgeStyle=orthogonalEdgeStyle;rounded=0;orthogonalLoop=1;jettySize=auto;html=1;entryX=0.5;entryY=1;entryDx=0;entryDy=0;fontSize=15;" edge="1" parent="V5P2jXgz8SeRun-mOYAe-91" source="V5P2jXgz8SeRun-mOYAe-62" target="V5P2jXgz8SeRun-mOYAe-60">
          <mxGeometry relative="1" as="geometry" />
        </mxCell>
        <mxCell id="V5P2jXgz8SeRun-mOYAe-62" value="&lt;font style=&quot;font-size: 18px;&quot;&gt;BPSD&lt;/font&gt;" style="rounded=0;whiteSpace=wrap;html=1;rotation=90;fillColor=#FF3333;" vertex="1" parent="V5P2jXgz8SeRun-mOYAe-91">
          <mxGeometry x="149" y="60" width="120" height="45" as="geometry" />
        </mxCell>
        <mxCell id="V5P2jXgz8SeRun-mOYAe-64" style="edgeStyle=orthogonalEdgeStyle;rounded=0;orthogonalLoop=1;jettySize=auto;html=1;entryX=0.5;entryY=1;entryDx=0;entryDy=0;fontSize=18;" edge="1" parent="V5P2jXgz8SeRun-mOYAe-91" source="V5P2jXgz8SeRun-mOYAe-63" target="V5P2jXgz8SeRun-mOYAe-62">
          <mxGeometry relative="1" as="geometry" />
        </mxCell>
        <mxCell id="V5P2jXgz8SeRun-mOYAe-63" value="&lt;font style=&quot;font-size: 18px;&quot;&gt;PE&lt;/font&gt;" style="rounded=0;whiteSpace=wrap;html=1;rotation=90;fillColor=#fff2cc;strokeColor=#d6b656;" vertex="1" parent="V5P2jXgz8SeRun-mOYAe-91">
          <mxGeometry x="69" y="62.5" width="120" height="40" as="geometry" />
        </mxCell>
        <mxCell id="V5P2jXgz8SeRun-mOYAe-69" style="edgeStyle=orthogonalEdgeStyle;rounded=0;orthogonalLoop=1;jettySize=auto;html=1;entryX=0.5;entryY=1;entryDx=0;entryDy=0;fontSize=18;" edge="1" parent="V5P2jXgz8SeRun-mOYAe-91" source="V5P2jXgz8SeRun-mOYAe-65" target="V5P2jXgz8SeRun-mOYAe-61">
          <mxGeometry relative="1" as="geometry" />
        </mxCell>
        <mxCell id="V5P2jXgz8SeRun-mOYAe-65" value="&lt;font style=&quot;font-size: 15px;&quot;&gt;ATT&lt;/font&gt;" style="rounded=0;whiteSpace=wrap;html=1;rotation=90;fillColor=#66B2FF;" vertex="1" parent="V5P2jXgz8SeRun-mOYAe-91">
          <mxGeometry x="296" y="67.5" width="120" height="30" as="geometry" />
        </mxCell>
        <mxCell id="V5P2jXgz8SeRun-mOYAe-75" value="&lt;span style=&quot;font-size: 15px;&quot;&gt;$$C,T,V$$&lt;/span&gt;" style="text;html=1;align=center;verticalAlign=middle;resizable=0;points=[];autosize=1;strokeColor=none;fillColor=none;fontSize=18;" vertex="1" parent="V5P2jXgz8SeRun-mOYAe-91">
          <mxGeometry y="120" width="90" height="40" as="geometry" />
        </mxCell>
        <mxCell id="V5P2jXgz8SeRun-mOYAe-84" value="&lt;span style=&quot;font-size: 15px;&quot;&gt;$$C,T/s,sV$$&lt;/span&gt;" style="text;html=1;align=center;verticalAlign=middle;resizable=0;points=[];autosize=1;strokeColor=none;fillColor=none;fontSize=18;" vertex="1" parent="V5P2jXgz8SeRun-mOYAe-91">
          <mxGeometry x="224" width="110" height="40" as="geometry" />
        </mxCell>
        <mxCell id="V5P2jXgz8SeRun-mOYAe-86" value="&lt;span style=&quot;font-size: 15px;&quot;&gt;$$C,T,V$$&lt;/span&gt;" style="text;html=1;align=center;verticalAlign=middle;resizable=0;points=[];autosize=1;strokeColor=none;fillColor=none;fontSize=18;" vertex="1" parent="V5P2jXgz8SeRun-mOYAe-91">
          <mxGeometry x="460" y="40" width="90" height="40" as="geometry" />
        </mxCell>
        <mxCell id="V5P2jXgz8SeRun-mOYAe-90" value="&lt;font style=&quot;font-size: 18px;&quot;&gt;$$X$$&lt;/font&gt;" style="text;html=1;align=center;verticalAlign=middle;resizable=0;points=[];autosize=1;strokeColor=none;fillColor=none;fontSize=15;" vertex="1" parent="V5P2jXgz8SeRun-mOYAe-91">
          <mxGeometry y="65" width="80" height="40" as="geometry" />
        </mxCell>
        <mxCell id="V5P2jXgz8SeRun-mOYAe-92" value="" style="group" vertex="1" connectable="0" parent="1">
          <mxGeometry x="827" y="-150" width="360" height="590" as="geometry" />
        </mxCell>
        <mxCell id="V5P2jXgz8SeRun-mOYAe-25" value="&lt;font style=&quot;font-size: 18px;&quot;&gt;PE&lt;/font&gt;" style="rounded=0;whiteSpace=wrap;html=1;fillColor=#fff2cc;strokeColor=#d6b656;" vertex="1" parent="V5P2jXgz8SeRun-mOYAe-92">
          <mxGeometry y="430" width="120" height="60" as="geometry" />
        </mxCell>
        <mxCell id="V5P2jXgz8SeRun-mOYAe-26" value="&lt;font style=&quot;font-size: 18px;&quot;&gt;BPSD&lt;/font&gt;" style="rounded=0;whiteSpace=wrap;html=1;fillColor=#FF3333;" vertex="1" parent="V5P2jXgz8SeRun-mOYAe-92">
          <mxGeometry x="200" y="430" width="120" height="60" as="geometry" />
        </mxCell>
        <mxCell id="V5P2jXgz8SeRun-mOYAe-28" value="" style="endArrow=classic;html=1;rounded=0;fontSize=18;entryX=0.5;entryY=1;entryDx=0;entryDy=0;" edge="1" parent="V5P2jXgz8SeRun-mOYAe-92" target="V5P2jXgz8SeRun-mOYAe-25">
          <mxGeometry width="50" height="50" relative="1" as="geometry">
            <mxPoint x="160" y="550" as="sourcePoint" />
            <mxPoint x="20" y="520" as="targetPoint" />
            <Array as="points">
              <mxPoint x="160" y="520" />
              <mxPoint x="60" y="520" />
            </Array>
          </mxGeometry>
        </mxCell>
        <mxCell id="V5P2jXgz8SeRun-mOYAe-29" value="" style="endArrow=classic;html=1;rounded=0;fontSize=18;entryX=0.5;entryY=1;entryDx=0;entryDy=0;" edge="1" parent="V5P2jXgz8SeRun-mOYAe-92" target="V5P2jXgz8SeRun-mOYAe-26">
          <mxGeometry width="50" height="50" relative="1" as="geometry">
            <mxPoint x="170" y="520" as="sourcePoint" />
            <mxPoint x="70" y="500.0000000000002" as="targetPoint" />
            <Array as="points">
              <mxPoint x="160" y="520" />
              <mxPoint x="170" y="520" />
              <mxPoint x="260" y="520" />
            </Array>
          </mxGeometry>
        </mxCell>
        <mxCell id="V5P2jXgz8SeRun-mOYAe-30" value="&lt;font style=&quot;font-size: 15px;&quot;&gt;Reshape&lt;/font&gt;" style="rounded=0;whiteSpace=wrap;html=1;fillColor=#d5e8d4;strokeColor=#82b366;" vertex="1" parent="V5P2jXgz8SeRun-mOYAe-92">
          <mxGeometry x="20" y="340" width="80" height="40" as="geometry" />
        </mxCell>
        <mxCell id="V5P2jXgz8SeRun-mOYAe-32" value="" style="edgeStyle=orthogonalEdgeStyle;rounded=0;orthogonalLoop=1;jettySize=auto;html=1;fontSize=18;" edge="1" parent="V5P2jXgz8SeRun-mOYAe-92" source="V5P2jXgz8SeRun-mOYAe-25" target="V5P2jXgz8SeRun-mOYAe-30">
          <mxGeometry relative="1" as="geometry" />
        </mxCell>
        <mxCell id="V5P2jXgz8SeRun-mOYAe-31" value="&lt;font style=&quot;font-size: 15px;&quot;&gt;Reshape&lt;/font&gt;" style="rounded=0;whiteSpace=wrap;html=1;fillColor=#d5e8d4;strokeColor=#82b366;" vertex="1" parent="V5P2jXgz8SeRun-mOYAe-92">
          <mxGeometry x="220" y="340" width="80" height="40" as="geometry" />
        </mxCell>
        <mxCell id="V5P2jXgz8SeRun-mOYAe-33" value="" style="edgeStyle=orthogonalEdgeStyle;rounded=0;orthogonalLoop=1;jettySize=auto;html=1;fontSize=18;" edge="1" parent="V5P2jXgz8SeRun-mOYAe-92" source="V5P2jXgz8SeRun-mOYAe-26" target="V5P2jXgz8SeRun-mOYAe-31">
          <mxGeometry relative="1" as="geometry" />
        </mxCell>
        <mxCell id="V5P2jXgz8SeRun-mOYAe-40" style="edgeStyle=orthogonalEdgeStyle;rounded=0;orthogonalLoop=1;jettySize=auto;html=1;fontSize=18;exitX=0.5;exitY=0;exitDx=0;exitDy=0;" edge="1" parent="V5P2jXgz8SeRun-mOYAe-92" source="V5P2jXgz8SeRun-mOYAe-34">
          <mxGeometry relative="1" as="geometry">
            <mxPoint x="160" y="190" as="targetPoint" />
          </mxGeometry>
        </mxCell>
        <mxCell id="V5P2jXgz8SeRun-mOYAe-34" value="&lt;font style=&quot;font-size: 15px;&quot;&gt;ATT1&lt;/font&gt;" style="rounded=0;whiteSpace=wrap;html=1;fillColor=#66B2FF;" vertex="1" parent="V5P2jXgz8SeRun-mOYAe-92">
          <mxGeometry y="252" width="120" height="30" as="geometry" />
        </mxCell>
        <mxCell id="V5P2jXgz8SeRun-mOYAe-35" value="" style="edgeStyle=orthogonalEdgeStyle;rounded=0;orthogonalLoop=1;jettySize=auto;html=1;fontSize=18;" edge="1" parent="V5P2jXgz8SeRun-mOYAe-92" source="V5P2jXgz8SeRun-mOYAe-30" target="V5P2jXgz8SeRun-mOYAe-34">
          <mxGeometry relative="1" as="geometry" />
        </mxCell>
        <mxCell id="V5P2jXgz8SeRun-mOYAe-36" value="&lt;font style=&quot;font-size: 15px;&quot;&gt;ATT2&lt;/font&gt;" style="rounded=0;whiteSpace=wrap;html=1;fillColor=#9999FF;" vertex="1" parent="V5P2jXgz8SeRun-mOYAe-92">
          <mxGeometry x="200" y="252" width="120" height="30" as="geometry" />
        </mxCell>
        <mxCell id="V5P2jXgz8SeRun-mOYAe-37" value="" style="edgeStyle=orthogonalEdgeStyle;rounded=0;orthogonalLoop=1;jettySize=auto;html=1;fontSize=18;" edge="1" parent="V5P2jXgz8SeRun-mOYAe-92" source="V5P2jXgz8SeRun-mOYAe-31" target="V5P2jXgz8SeRun-mOYAe-36">
          <mxGeometry relative="1" as="geometry" />
        </mxCell>
        <mxCell id="V5P2jXgz8SeRun-mOYAe-38" value="&lt;font style=&quot;font-size: 15px;&quot;&gt;ATT&lt;/font&gt;" style="rounded=0;whiteSpace=wrap;html=1;fillColor=#C9FFCD;" vertex="1" parent="V5P2jXgz8SeRun-mOYAe-92">
          <mxGeometry x="99" y="160" width="120" height="30" as="geometry" />
        </mxCell>
        <mxCell id="V5P2jXgz8SeRun-mOYAe-39" style="edgeStyle=orthogonalEdgeStyle;rounded=0;orthogonalLoop=1;jettySize=auto;html=1;entryX=0.5;entryY=1;entryDx=0;entryDy=0;fontSize=18;" edge="1" parent="V5P2jXgz8SeRun-mOYAe-92" source="V5P2jXgz8SeRun-mOYAe-36" target="V5P2jXgz8SeRun-mOYAe-38">
          <mxGeometry relative="1" as="geometry" />
        </mxCell>
        <mxCell id="V5P2jXgz8SeRun-mOYAe-41" value="&lt;font style=&quot;font-size: 15px;&quot;&gt;Reshape&lt;/font&gt;" style="rounded=0;whiteSpace=wrap;html=1;fillColor=#d5e8d4;strokeColor=#82b366;" vertex="1" parent="V5P2jXgz8SeRun-mOYAe-92">
          <mxGeometry x="119" y="90" width="80" height="40" as="geometry" />
        </mxCell>
        <mxCell id="V5P2jXgz8SeRun-mOYAe-42" value="" style="edgeStyle=orthogonalEdgeStyle;rounded=0;orthogonalLoop=1;jettySize=auto;html=1;fontSize=18;" edge="1" parent="V5P2jXgz8SeRun-mOYAe-92" source="V5P2jXgz8SeRun-mOYAe-38" target="V5P2jXgz8SeRun-mOYAe-41">
          <mxGeometry relative="1" as="geometry" />
        </mxCell>
        <mxCell id="V5P2jXgz8SeRun-mOYAe-44" value="" style="endArrow=classic;html=1;rounded=0;fontSize=18;" edge="1" parent="V5P2jXgz8SeRun-mOYAe-92">
          <mxGeometry width="50" height="50" relative="1" as="geometry">
            <mxPoint x="158.70000000000005" y="90" as="sourcePoint" />
            <mxPoint x="158.70000000000005" as="targetPoint" />
          </mxGeometry>
        </mxCell>
        <mxCell id="V5P2jXgz8SeRun-mOYAe-45" value="" style="endArrow=classic;html=1;rounded=0;fontSize=18;" edge="1" parent="V5P2jXgz8SeRun-mOYAe-92">
          <mxGeometry width="50" height="50" relative="1" as="geometry">
            <mxPoint x="250" y="520" as="sourcePoint" />
            <mxPoint x="160" y="70" as="targetPoint" />
            <Array as="points">
              <mxPoint x="360" y="520" />
              <mxPoint x="360" y="300" />
              <mxPoint x="360" y="70" />
            </Array>
          </mxGeometry>
        </mxCell>
        <mxCell id="V5P2jXgz8SeRun-mOYAe-74" value="&lt;span style=&quot;font-size: 15px;&quot;&gt;$$C,T,V$$&lt;/span&gt;" style="text;html=1;align=center;verticalAlign=middle;resizable=0;points=[];autosize=1;strokeColor=none;fillColor=none;fontSize=18;" vertex="1" parent="V5P2jXgz8SeRun-mOYAe-92">
          <mxGeometry x="150" y="520" width="90" height="40" as="geometry" />
        </mxCell>
        <mxCell id="V5P2jXgz8SeRun-mOYAe-87" value="&lt;span style=&quot;font-size: 15px;&quot;&gt;$$C,T/s,sV$$&lt;/span&gt;" style="text;html=1;align=center;verticalAlign=middle;resizable=0;points=[];autosize=1;strokeColor=none;fillColor=none;fontSize=18;" vertex="1" parent="V5P2jXgz8SeRun-mOYAe-92">
          <mxGeometry x="109" y="320" width="110" height="40" as="geometry" />
        </mxCell>
        <mxCell id="V5P2jXgz8SeRun-mOYAe-88" value="&lt;span style=&quot;font-size: 15px;&quot;&gt;$$C,T,V$$&lt;/span&gt;" style="text;html=1;align=center;verticalAlign=middle;resizable=0;points=[];autosize=1;strokeColor=none;fillColor=none;fontSize=18;" vertex="1" parent="V5P2jXgz8SeRun-mOYAe-92">
          <mxGeometry x="150" y="20" width="90" height="40" as="geometry" />
        </mxCell>
        <mxCell id="V5P2jXgz8SeRun-mOYAe-89" value="&lt;font style=&quot;font-size: 18px;&quot;&gt;$$X$$&lt;/font&gt;" style="text;html=1;align=center;verticalAlign=middle;resizable=0;points=[];autosize=1;strokeColor=none;fillColor=none;fontSize=15;" vertex="1" parent="V5P2jXgz8SeRun-mOYAe-92">
          <mxGeometry x="120" y="550" width="80" height="40" as="geometry" />
        </mxCell>
        <mxCell id="V5P2jXgz8SeRun-mOYAe-93" value="" style="group" vertex="1" connectable="0" parent="1">
          <mxGeometry x="90" y="-470" width="171" height="910" as="geometry" />
        </mxCell>
        <mxCell id="V5P2jXgz8SeRun-mOYAe-1" value="&lt;font style=&quot;font-size: 18px;&quot;&gt;PE&lt;/font&gt;" style="rounded=0;whiteSpace=wrap;html=1;fillColor=#fff2cc;strokeColor=#d6b656;" vertex="1" parent="V5P2jXgz8SeRun-mOYAe-93">
          <mxGeometry y="750" width="120" height="60" as="geometry" />
        </mxCell>
        <mxCell id="V5P2jXgz8SeRun-mOYAe-3" style="edgeStyle=orthogonalEdgeStyle;rounded=0;orthogonalLoop=1;jettySize=auto;html=1;entryX=0.5;entryY=1;entryDx=0;entryDy=0;fontSize=18;" edge="1" parent="V5P2jXgz8SeRun-mOYAe-93" source="V5P2jXgz8SeRun-mOYAe-2" target="V5P2jXgz8SeRun-mOYAe-1">
          <mxGeometry relative="1" as="geometry" />
        </mxCell>
        <mxCell id="V5P2jXgz8SeRun-mOYAe-2" value="&lt;font style=&quot;font-size: 18px;&quot;&gt;$$X$$&lt;/font&gt;" style="text;html=1;align=center;verticalAlign=middle;resizable=0;points=[];autosize=1;strokeColor=none;fillColor=none;fontSize=15;" vertex="1" parent="V5P2jXgz8SeRun-mOYAe-93">
          <mxGeometry x="20" y="870" width="80" height="40" as="geometry" />
        </mxCell>
        <mxCell id="V5P2jXgz8SeRun-mOYAe-4" value="&lt;font style=&quot;font-size: 15px;&quot;&gt;Reshape&lt;/font&gt;" style="rounded=0;whiteSpace=wrap;html=1;fillColor=#d5e8d4;strokeColor=#82b366;" vertex="1" parent="V5P2jXgz8SeRun-mOYAe-93">
          <mxGeometry x="20" y="660" width="80" height="40" as="geometry" />
        </mxCell>
        <mxCell id="V5P2jXgz8SeRun-mOYAe-5" style="edgeStyle=orthogonalEdgeStyle;rounded=0;orthogonalLoop=1;jettySize=auto;html=1;entryX=0.5;entryY=1;entryDx=0;entryDy=0;fontSize=18;" edge="1" parent="V5P2jXgz8SeRun-mOYAe-93" source="V5P2jXgz8SeRun-mOYAe-1" target="V5P2jXgz8SeRun-mOYAe-4">
          <mxGeometry relative="1" as="geometry" />
        </mxCell>
        <mxCell id="V5P2jXgz8SeRun-mOYAe-6" value="&lt;font style=&quot;font-size: 15px;&quot;&gt;ATT1&lt;/font&gt;" style="rounded=0;whiteSpace=wrap;html=1;fillColor=#66B2FF;" vertex="1" parent="V5P2jXgz8SeRun-mOYAe-93">
          <mxGeometry y="572" width="120" height="30" as="geometry" />
        </mxCell>
        <mxCell id="V5P2jXgz8SeRun-mOYAe-7" style="edgeStyle=orthogonalEdgeStyle;rounded=0;orthogonalLoop=1;jettySize=auto;html=1;exitX=0.5;exitY=0;exitDx=0;exitDy=0;fontSize=18;" edge="1" parent="V5P2jXgz8SeRun-mOYAe-93" source="V5P2jXgz8SeRun-mOYAe-4" target="V5P2jXgz8SeRun-mOYAe-6">
          <mxGeometry relative="1" as="geometry" />
        </mxCell>
        <mxCell id="V5P2jXgz8SeRun-mOYAe-8" value="&lt;font style=&quot;font-size: 18px;&quot;&gt;BPSD&lt;/font&gt;" style="rounded=0;whiteSpace=wrap;html=1;fillColor=#FF3333;" vertex="1" parent="V5P2jXgz8SeRun-mOYAe-93">
          <mxGeometry y="340" width="120" height="60" as="geometry" />
        </mxCell>
        <mxCell id="V5P2jXgz8SeRun-mOYAe-12" style="edgeStyle=orthogonalEdgeStyle;rounded=0;orthogonalLoop=1;jettySize=auto;html=1;entryX=0.5;entryY=1;entryDx=0;entryDy=0;fontSize=18;" edge="1" parent="V5P2jXgz8SeRun-mOYAe-93" source="V5P2jXgz8SeRun-mOYAe-10" target="V5P2jXgz8SeRun-mOYAe-8">
          <mxGeometry relative="1" as="geometry" />
        </mxCell>
        <mxCell id="V5P2jXgz8SeRun-mOYAe-10" value="&lt;font style=&quot;font-size: 15px;&quot;&gt;Reshape&lt;/font&gt;" style="rounded=0;whiteSpace=wrap;html=1;fillColor=#d5e8d4;strokeColor=#82b366;" vertex="1" parent="V5P2jXgz8SeRun-mOYAe-93">
          <mxGeometry x="20" y="460" width="80" height="40" as="geometry" />
        </mxCell>
        <mxCell id="V5P2jXgz8SeRun-mOYAe-11" style="edgeStyle=orthogonalEdgeStyle;rounded=0;orthogonalLoop=1;jettySize=auto;html=1;entryX=0.5;entryY=1;entryDx=0;entryDy=0;fontSize=18;" edge="1" parent="V5P2jXgz8SeRun-mOYAe-93" source="V5P2jXgz8SeRun-mOYAe-6" target="V5P2jXgz8SeRun-mOYAe-10">
          <mxGeometry relative="1" as="geometry" />
        </mxCell>
        <mxCell id="V5P2jXgz8SeRun-mOYAe-13" value="&lt;font style=&quot;font-size: 15px;&quot;&gt;ATT2&lt;/font&gt;" style="rounded=0;whiteSpace=wrap;html=1;fillColor=#9999FF;" vertex="1" parent="V5P2jXgz8SeRun-mOYAe-93">
          <mxGeometry y="179" width="120" height="30" as="geometry" />
        </mxCell>
        <mxCell id="V5P2jXgz8SeRun-mOYAe-15" value="" style="endArrow=classic;html=1;rounded=0;fontSize=18;" edge="1" parent="V5P2jXgz8SeRun-mOYAe-93">
          <mxGeometry width="50" height="50" relative="1" as="geometry">
            <mxPoint x="60" y="830" as="sourcePoint" />
            <mxPoint x="60" y="50" as="targetPoint" />
            <Array as="points">
              <mxPoint x="170" y="830" />
              <mxPoint x="170" y="50" />
            </Array>
          </mxGeometry>
        </mxCell>
        <mxCell id="V5P2jXgz8SeRun-mOYAe-16" value="" style="endArrow=classic;html=1;rounded=0;fontSize=18;" edge="1" parent="V5P2jXgz8SeRun-mOYAe-93">
          <mxGeometry width="50" height="50" relative="1" as="geometry">
            <mxPoint x="59.660000000000025" y="90" as="sourcePoint" />
            <mxPoint x="59.660000000000025" as="targetPoint" />
          </mxGeometry>
        </mxCell>
        <mxCell id="V5P2jXgz8SeRun-mOYAe-17" value="" style="endArrow=classic;html=1;rounded=0;fontSize=18;" edge="1" parent="V5P2jXgz8SeRun-mOYAe-93">
          <mxGeometry width="50" height="50" relative="1" as="geometry">
            <mxPoint x="170" y="430" as="sourcePoint" />
            <mxPoint x="60" y="430" as="targetPoint" />
          </mxGeometry>
        </mxCell>
        <mxCell id="V5P2jXgz8SeRun-mOYAe-22" value="" style="edgeStyle=orthogonalEdgeStyle;rounded=0;orthogonalLoop=1;jettySize=auto;html=1;fontSize=18;" edge="1" parent="V5P2jXgz8SeRun-mOYAe-93" source="V5P2jXgz8SeRun-mOYAe-18" target="V5P2jXgz8SeRun-mOYAe-13">
          <mxGeometry relative="1" as="geometry" />
        </mxCell>
        <mxCell id="V5P2jXgz8SeRun-mOYAe-18" value="&lt;font style=&quot;font-size: 15px;&quot;&gt;Reshape&lt;/font&gt;" style="rounded=0;whiteSpace=wrap;html=1;fillColor=#d5e8d4;strokeColor=#82b366;" vertex="1" parent="V5P2jXgz8SeRun-mOYAe-93">
          <mxGeometry x="20" y="260" width="80" height="40" as="geometry" />
        </mxCell>
        <mxCell id="V5P2jXgz8SeRun-mOYAe-20" style="edgeStyle=orthogonalEdgeStyle;rounded=0;orthogonalLoop=1;jettySize=auto;html=1;entryX=0.5;entryY=1;entryDx=0;entryDy=0;fontSize=18;" edge="1" parent="V5P2jXgz8SeRun-mOYAe-93" source="V5P2jXgz8SeRun-mOYAe-8" target="V5P2jXgz8SeRun-mOYAe-18">
          <mxGeometry relative="1" as="geometry" />
        </mxCell>
        <mxCell id="V5P2jXgz8SeRun-mOYAe-23" value="&lt;font style=&quot;font-size: 15px;&quot;&gt;Reshape&lt;/font&gt;" style="rounded=0;whiteSpace=wrap;html=1;fillColor=#d5e8d4;strokeColor=#82b366;" vertex="1" parent="V5P2jXgz8SeRun-mOYAe-93">
          <mxGeometry x="20" y="90" width="80" height="40" as="geometry" />
        </mxCell>
        <mxCell id="V5P2jXgz8SeRun-mOYAe-24" value="" style="edgeStyle=orthogonalEdgeStyle;rounded=0;orthogonalLoop=1;jettySize=auto;html=1;fontSize=18;" edge="1" parent="V5P2jXgz8SeRun-mOYAe-93" source="V5P2jXgz8SeRun-mOYAe-13" target="V5P2jXgz8SeRun-mOYAe-23">
          <mxGeometry relative="1" as="geometry" />
        </mxCell>
        <mxCell id="V5P2jXgz8SeRun-mOYAe-72" value="&lt;span style=&quot;font-size: 15px;&quot;&gt;$$C,T,V$$&lt;/span&gt;" style="text;html=1;align=center;verticalAlign=middle;resizable=0;points=[];autosize=1;strokeColor=none;fillColor=none;fontSize=18;" vertex="1" parent="V5P2jXgz8SeRun-mOYAe-93">
          <mxGeometry x="45" y="830" width="90" height="40" as="geometry" />
        </mxCell>
        <mxCell id="V5P2jXgz8SeRun-mOYAe-73" value="&lt;span style=&quot;font-size: 15px;&quot;&gt;$$C,T/s,sV$$&lt;/span&gt;" style="text;html=1;align=center;verticalAlign=middle;resizable=0;points=[];autosize=1;strokeColor=none;fillColor=none;fontSize=18;" vertex="1" parent="V5P2jXgz8SeRun-mOYAe-93">
          <mxGeometry x="55" y="620" width="110" height="40" as="geometry" />
        </mxCell>
        <mxCell id="V5P2jXgz8SeRun-mOYAe-77" value="&lt;span style=&quot;font-size: 15px;&quot;&gt;$$C,T,V$$&lt;/span&gt;" style="text;html=1;align=center;verticalAlign=middle;resizable=0;points=[];autosize=1;strokeColor=none;fillColor=none;fontSize=18;" vertex="1" parent="V5P2jXgz8SeRun-mOYAe-93">
          <mxGeometry x="66" y="400" width="90" height="40" as="geometry" />
        </mxCell>
        <mxCell id="V5P2jXgz8SeRun-mOYAe-79" value="&lt;span style=&quot;font-size: 15px;&quot;&gt;$$C,T/s,sV$$&lt;/span&gt;" style="text;html=1;align=center;verticalAlign=middle;resizable=0;points=[];autosize=1;strokeColor=none;fillColor=none;fontSize=18;" vertex="1" parent="V5P2jXgz8SeRun-mOYAe-93">
          <mxGeometry x="56" y="220" width="110" height="40" as="geometry" />
        </mxCell>
        <mxCell id="V5P2jXgz8SeRun-mOYAe-80" value="&lt;span style=&quot;font-size: 15px;&quot;&gt;$$C,T,V$$&lt;/span&gt;" style="text;html=1;align=center;verticalAlign=middle;resizable=0;points=[];autosize=1;strokeColor=none;fillColor=none;fontSize=18;" vertex="1" parent="V5P2jXgz8SeRun-mOYAe-93">
          <mxGeometry x="62" y="10" width="90" height="40" as="geometry" />
        </mxCell>
      </root>
    </mxGraphModel>
  </diagram>
</mxfile>
